Coordinates
version=1
nRows=60
nColumns=12
inDegrees=yes

Units are S.I. units (second, meters, Newtons, ...)
Angles are in degrees

endheader
time	SC_y	SC_z	SC_x	AC_y	AC_z	AC_x	GH_y	GH_z	GH_yy	EL_x	PS_y
       0.0              -50.58          8.793          53.12          59.58          3.538           1.17          154.3          79.88         -138.5          139.1          40.32
   0.04892              -50.57          8.792          53.12          59.58          3.538          1.169          154.3          79.88         -138.4          139.0          40.32
   0.09784              -50.57          8.792          53.11          59.58          3.539          1.169          154.3          79.88         -138.4          139.0          40.31
    0.1468              -50.57          8.791           53.1          59.57           3.54          1.168          154.2          79.88         -138.3          139.0          40.31
    0.1957              -50.56           8.79          53.09          59.57          3.541          1.167          154.2          79.88         -138.3          139.0          40.31
    0.2446              -50.56          8.789          53.08          59.57          3.541          1.167          154.2          79.87         -138.2          139.0          40.31
    0.2935              -50.55          8.788          53.07          59.56          3.542          1.166          154.2          79.87         -138.1          138.9           40.3
    0.3424              -50.55          8.787          53.06          59.56          3.543          1.165          154.2          79.87         -138.1          138.9           40.3
    0.3914              -50.54          8.786          53.05          59.56          3.544          1.164          154.2          79.87         -138.0          138.9           40.3
    0.4403              -50.53          8.785          53.04          59.55          3.545          1.163          154.1          79.87         -137.9          138.9          40.29
    0.4892              -50.53          8.784          53.03          59.55          3.546          1.162          154.1          79.86         -137.9          138.8          40.29
    0.5381              -50.52          8.782          53.02          59.54          3.548          1.161          154.1          79.86         -137.8          138.8          40.28
     0.587              -50.51          8.781           53.0          59.53          3.549           1.16          154.1          79.86         -137.7          138.8          40.28
     0.636               -50.5          8.779          52.99          59.53           3.55          1.159          154.0          79.85         -137.6          138.7          40.28
    0.6849               -50.5          8.777          52.97          59.52          3.552          1.157          154.0          79.85         -137.5          138.7          40.27
    0.7338              -50.49          8.776          52.95          59.51          3.554          1.156          154.0          79.84         -137.4          138.6          40.27
    0.7827              -50.48          8.774          52.93          59.51          3.555          1.154          153.9          79.84         -137.2          138.6          40.26
    0.8317              -50.46          8.771          52.91           59.5          3.557          1.153          153.9          79.84         -137.1          138.5          40.25
    0.8806              -50.45          8.769          52.89          59.49           3.56          1.151          153.8          79.83         -137.0          138.5          40.25
    0.9295              -50.44          8.766          52.86          59.48          3.562          1.149          153.8          79.82         -136.8          138.4          40.24
    0.9784              -50.42          8.764          52.83          59.47          3.565          1.146          153.7          79.82         -136.6          138.3          40.23
     1.027              -50.41           8.76           52.8          59.45          3.567          1.144          153.7          79.81         -136.4          138.3          40.22
     1.076              -50.39          8.757          52.76          59.44          3.571          1.141          153.6           79.8         -136.2          138.2          40.21
     1.125              -50.37          8.753          52.73          59.42          3.574          1.138          153.6          79.79         -136.0          138.1           40.2
     1.174              -50.35          8.749          52.68          59.41          3.578          1.134          153.5          79.78         -135.7          138.0          40.19
     1.223              -50.32          8.744          52.64          59.39          3.583          1.131          153.4          79.77         -135.4          137.9          40.17
     1.272              -50.29          8.739          52.58          59.37          3.587          1.126          153.3          79.76         -135.1          137.7          40.15
     1.321              -50.26          8.733          52.52          59.34          3.593          1.121          153.2          79.75         -134.7          137.6          40.14
      1.37              -50.22          8.726          52.45          59.31          3.599          1.116          153.1          79.73         -134.3          137.4          40.12
     1.419              -50.18          8.718          52.38          59.28          3.606           1.11          152.9          79.71         -133.8          137.3          40.09
     1.468              -50.14          8.709          52.29          59.25          3.614          1.103          152.8          79.69         -133.2          137.0          40.07
     1.517              -50.08          8.699          52.19          59.21          3.624          1.094          152.6          79.67         -132.6          136.8          40.04
     1.565              -50.02          8.687          52.07          59.16          3.634          1.085          152.4          79.65         -131.9          136.5           40.0
     1.614              -49.95          8.674          51.94           59.1          3.647          1.074          152.1          79.61         -131.0          136.2          39.96
     1.663              -49.87          8.658          51.78          59.04          3.661          1.061          151.8          79.58         -130.0          135.8          39.91
     1.712              -49.77          8.639          51.59          58.97          3.678          1.046          151.5          79.54         -128.8          135.4          39.86
     1.761              -49.65          8.617          51.37          58.88          3.699          1.028          151.1          79.49         -127.4          134.8          39.79
      1.81              -49.51           8.59           51.1          58.77          3.723          1.007          150.6          79.43         -125.8          134.2          39.71
     1.859              -49.34          8.558          50.78          58.64          3.753         0.9808          150.0          79.35         -123.8          133.4          39.61
     1.908              -49.13          8.518          50.39          58.48          3.789          0.949          149.3          79.26         -121.3          132.4           39.5
     1.957              -48.88          8.469           49.9          58.28          3.834         0.9098          148.4          79.15         -118.2          131.3          39.35
     2.006              -48.56          8.409           49.3          58.04          3.889          0.861          147.4          79.02         -114.5          129.8          39.17
     2.055              -48.16          8.332          48.53          57.73          3.959         0.7994          146.0          78.84         -109.7          128.0          38.94
     2.104              -47.65          8.235          47.56          57.34          4.048         0.7211          144.2          78.62         -103.6          125.6          38.65
     2.153              -46.99           8.11          46.32          56.84          4.162          0.621          142.0          78.34          -95.8          122.6          38.28
     2.201              -46.15           7.95          44.73           56.2          4.308         0.4924          139.1          77.98         -85.81          118.8           37.8
      2.25              -45.08          7.746           42.7          55.38          4.495         0.3282          135.4          77.52         -73.06          113.9          37.19
     2.299              -43.73          7.489          40.14          54.34           4.73         0.1217          130.8          76.94         -57.01          107.7          36.42
     2.348              -42.09          7.176          37.02          53.09          5.016        -0.1299          125.2          76.23         -37.46          100.1          35.49
     2.397              -40.18          6.813          33.41          51.63          5.348        -0.4215          118.6          75.41          -14.8          91.41           34.4
     2.446              -38.12           6.42           29.5          50.05          5.707        -0.7373          111.5          74.52          9.732          81.96          33.23
     2.495              -36.06          6.027          25.59          48.47          6.066         -1.053          104.5          73.64          34.27           72.5          32.05
     2.544              -34.15          5.664          21.97          47.01          6.398         -1.345          97.93          72.82          56.93          63.77          30.97
     2.593              -32.51          5.351          18.86          45.76          6.684         -1.596          92.29          72.11          76.48          56.24          30.04
     2.642              -31.16          5.094           16.3          44.73          6.919         -1.803          87.66          71.53          92.52          50.06          29.27
     2.691              -30.09           4.89          14.27           43.9          7.105         -1.967          83.98          71.07          105.3          45.14          28.66
      2.74              -29.25           4.73          12.67          43.26          7.252         -2.096           81.1          70.71          115.3          41.29          28.18
     2.788              -28.59          4.605          11.43          42.76          7.366         -2.196          78.86          70.43          123.1          38.29          27.81
     2.837              -28.08          4.508          10.46          42.37          7.455         -2.274           77.1          70.21          129.1          35.95          27.52
     2.886              -27.68          4.431          9.701          42.06          7.525         -2.336          75.72          70.03          133.9          34.11          27.29
